<svg width="168" height="52" viewBox="0 0 168 52" fill="none" xmlns="http://www.w3.org/2000/svg">
<path d="M28.4686 32V22.056H24.6366V20.48H33.9726V22.056H30.1406V32H28.4686ZM38.9839 21.912V20.312H40.5839V21.912H38.9839ZM35.7599 21.912V20.312H37.3599V21.912H35.7599ZM37.7119 32.232C37.1146 32.232 36.6133 32.136 36.2079 31.944C35.8026 31.752 35.4719 31.5013 35.2159 31.192C34.9653 30.8773 34.7733 30.536 34.6399 30.168C34.5066 29.8 34.4159 29.44 34.3679 29.088C34.3199 28.736 34.2959 28.4267 34.2959 28.16V23.36H35.9919V27.608C35.9919 27.944 36.0186 28.2907 36.0719 28.648C36.1306 29 36.2373 29.328 36.3919 29.632C36.5519 29.936 36.7733 30.1813 37.0559 30.368C37.3439 30.5547 37.7173 30.648 38.1759 30.648C38.4746 30.648 38.7573 30.6 39.0239 30.504C39.2906 30.4027 39.5226 30.2427 39.7199 30.024C39.9226 29.8053 40.0799 29.5173 40.1919 29.16C40.3093 28.8027 40.3679 28.368 40.3679 27.856L41.4079 28.248C41.4079 29.032 41.2613 29.7253 40.9679 30.328C40.6746 30.9253 40.2533 31.392 39.7039 31.728C39.1546 32.064 38.4906 32.232 37.7119 32.232ZM40.5679 32V29.504H40.3679V23.36H42.0559V32H40.5679ZM54.6517 32L54.6597 26.616C54.6597 25.992 54.4997 25.5067 54.1797 25.16C53.8597 24.808 53.4384 24.632 52.9157 24.632C52.5957 24.632 52.3024 24.7067 52.0357 24.856C51.7744 25 51.561 25.2187 51.3957 25.512C51.2357 25.8 51.1557 26.1627 51.1557 26.6L50.3477 26.192C50.337 25.584 50.465 25.0507 50.7317 24.592C51.0037 24.1333 51.3717 23.7787 51.8357 23.528C52.2997 23.272 52.8197 23.144 53.3957 23.144C54.329 23.144 55.0517 23.424 55.5637 23.984C56.0757 24.544 56.3317 25.288 56.3317 26.216L56.3237 32H54.6517ZM44.2917 32V23.36H45.7797V25.856H45.9717V32H44.2917ZM49.4757 32L49.4837 26.648C49.4837 26.0187 49.3237 25.5253 49.0037 25.168C48.689 24.8107 48.265 24.632 47.7317 24.632C47.2037 24.632 46.777 24.8133 46.4517 25.176C46.1317 25.5387 45.9717 26.0133 45.9717 26.6L45.1717 26.088C45.1717 25.5227 45.3077 25.0187 45.5797 24.576C45.8517 24.1333 46.2197 23.784 46.6837 23.528C47.1477 23.272 47.673 23.144 48.2597 23.144C48.873 23.144 49.3957 23.2747 49.8277 23.536C50.2597 23.792 50.5877 24.152 50.8117 24.616C51.041 25.08 51.1557 25.6187 51.1557 26.232L51.1477 32H49.4757ZM62.9371 21.912V20.312H64.5371V21.912H62.9371ZM59.7131 21.912V20.312H61.3131V21.912H59.7131ZM61.6651 32.232C61.0677 32.232 60.5664 32.136 60.1611 31.944C59.7557 31.752 59.4251 31.5013 59.1691 31.192C58.9184 30.8773 58.7264 30.536 58.5931 30.168C58.4597 29.8 58.3691 29.44 58.3211 29.088C58.2731 28.736 58.2491 28.4267 58.2491 28.16V23.36H59.9451V27.608C59.9451 27.944 59.9717 28.2907 60.0251 28.648C60.0837 29 60.1904 29.328 60.3451 29.632C60.5051 29.936 60.7264 30.1813 61.0091 30.368C61.2971 30.5547 61.6704 30.648 62.1291 30.648C62.4277 30.648 62.7104 30.6 62.9771 30.504C63.2437 30.4027 63.4757 30.2427 63.6731 30.024C63.8757 29.8053 64.0331 29.5173 64.1451 29.16C64.2624 28.8027 64.3211 28.368 64.3211 27.856L65.3611 28.248C65.3611 29.032 65.2144 29.7253 64.9211 30.328C64.6277 30.9253 64.2064 31.392 63.6571 31.728C63.1077 32.064 62.4437 32.232 61.6651 32.232ZM64.5211 32V29.504H64.3211V23.36H66.0091V32H64.5211ZM74.3168 32V27.752C74.3168 27.416 74.2875 27.072 74.2288 26.72C74.1755 26.3627 74.0688 26.032 73.9088 25.728C73.7541 25.424 73.5328 25.1787 73.2448 24.992C72.9621 24.8053 72.5915 24.712 72.1328 24.712C71.8341 24.712 71.5515 24.7627 71.2848 24.864C71.0181 24.96 70.7835 25.1173 70.5808 25.336C70.3835 25.5547 70.2261 25.8427 70.1088 26.2C69.9968 26.5573 69.9408 26.992 69.9408 27.504L68.9008 27.112C68.9008 26.328 69.0475 25.6373 69.3408 25.04C69.6341 24.4373 70.0555 23.968 70.6048 23.632C71.1541 23.296 71.8181 23.128 72.5968 23.128C73.1941 23.128 73.6955 23.224 74.1008 23.416C74.5061 23.608 74.8341 23.8613 75.0848 24.176C75.3408 24.4853 75.5355 24.824 75.6688 25.192C75.8021 25.56 75.8928 25.92 75.9408 26.272C75.9888 26.624 76.0128 26.9333 76.0128 27.2V32H74.3168ZM68.2448 32V23.36H69.7408V25.856H69.9408V32H68.2448ZM82.6246 21.912V20.312H84.2246V21.912H82.6246ZM79.4006 21.912V20.312H81.0006V21.912H79.4006ZM81.3526 32.232C80.7552 32.232 80.2539 32.136 79.8486 31.944C79.4432 31.752 79.1126 31.5013 78.8566 31.192C78.6059 30.8773 78.4139 30.536 78.2806 30.168C78.1472 29.8 78.0566 29.44 78.0086 29.088C77.9606 28.736 77.9366 28.4267 77.9366 28.16V23.36H79.6326V27.608C79.6326 27.944 79.6592 28.2907 79.7126 28.648C79.7712 29 79.8779 29.328 80.0326 29.632C80.1926 29.936 80.4139 30.1813 80.6966 30.368C80.9846 30.5547 81.3579 30.648 81.8166 30.648C82.1152 30.648 82.3979 30.6 82.6646 30.504C82.9312 30.4027 83.1632 30.2427 83.3606 30.024C83.5632 29.8053 83.7206 29.5173 83.8326 29.16C83.9499 28.8027 84.0086 28.368 84.0086 27.856L85.0486 28.248C85.0486 29.032 84.9019 29.7253 84.6086 30.328C84.3152 30.9253 83.8939 31.392 83.3446 31.728C82.7952 32.064 82.1312 32.232 81.3526 32.232ZM84.2086 32V29.504H84.0086V23.36H85.6966V32H84.2086ZM95.8554 32.24C95.0821 32.24 94.3701 32.1067 93.7194 31.84C93.0688 31.568 92.5034 31.1733 92.0234 30.656C91.5434 30.1387 91.1701 29.5093 90.9034 28.768C90.6368 28.0267 90.5034 27.184 90.5034 26.24C90.5034 24.9973 90.7301 23.9307 91.1834 23.04C91.6368 22.144 92.2661 21.456 93.0714 20.976C93.8768 20.4907 94.8048 20.248 95.8554 20.248C97.2101 20.248 98.2901 20.5627 99.0954 21.192C99.9061 21.8213 100.458 22.6907 100.751 23.8L99.0554 24.104C98.8208 23.416 98.4421 22.8667 97.9194 22.456C97.3968 22.0453 96.7408 21.8373 95.9514 21.832C95.1354 21.8267 94.4554 22.008 93.9114 22.376C93.3728 22.744 92.9674 23.2613 92.6954 23.928C92.4234 24.5893 92.2848 25.36 92.2794 26.24C92.2741 27.12 92.4074 27.8907 92.6794 28.552C92.9514 29.208 93.3594 29.72 93.9034 30.088C94.4528 30.456 95.1354 30.6427 95.9514 30.648C96.6074 30.6587 97.1701 30.5387 97.6394 30.288C98.1141 30.032 98.4901 29.6587 98.7674 29.168C99.0448 28.6773 99.2234 28.0747 99.3034 27.36H97.0634V26.016H101.079C101.09 26.112 101.098 26.24 101.103 26.4C101.109 26.5547 101.111 26.6533 101.111 26.696C101.111 27.7627 100.906 28.7147 100.495 29.552C100.085 30.3893 99.4874 31.048 98.7034 31.528C97.9194 32.0027 96.9701 32.24 95.8554 32.24ZM107.274 21.912V20.312H108.874V21.912H107.274ZM104.058 21.912V20.312H105.658V21.912H104.058ZM106.458 32.24C105.594 32.24 104.845 32.0453 104.21 31.656C103.575 31.2667 103.085 30.7307 102.738 30.048C102.397 29.36 102.226 28.568 102.226 27.672C102.226 26.7707 102.402 25.9787 102.754 25.296C103.106 24.608 103.599 24.0747 104.234 23.696C104.869 23.312 105.61 23.12 106.458 23.12C107.322 23.12 108.071 23.3147 108.706 23.704C109.341 24.0933 109.831 24.6293 110.178 25.312C110.525 25.9947 110.698 26.7813 110.698 27.672C110.698 28.5733 110.522 29.368 110.17 30.056C109.823 30.7387 109.333 31.2747 108.698 31.664C108.063 32.048 107.317 32.24 106.458 32.24ZM106.458 30.664C107.285 30.664 107.901 30.3867 108.306 29.832C108.717 29.272 108.922 28.552 108.922 27.672C108.922 26.7653 108.714 26.0427 108.298 25.504C107.887 24.9653 107.274 24.696 106.458 24.696C105.898 24.696 105.437 24.824 105.074 25.08C104.711 25.3307 104.442 25.68 104.266 26.128C104.09 26.5707 104.002 27.0853 104.002 27.672C104.002 28.5787 104.21 29.304 104.626 29.848C105.042 30.392 105.653 30.664 106.458 30.664ZM112.456 32V23.36H113.944V25.456L113.736 25.184C113.843 24.9067 113.981 24.6533 114.152 24.424C114.323 24.1893 114.52 23.9973 114.744 23.848C114.963 23.688 115.205 23.5653 115.472 23.48C115.744 23.3893 116.021 23.336 116.304 23.32C116.587 23.2987 116.859 23.312 117.12 23.36V24.928C116.837 24.8533 116.523 24.832 116.176 24.864C115.835 24.896 115.52 25.0053 115.232 25.192C114.96 25.368 114.744 25.5813 114.584 25.832C114.429 26.0827 114.317 26.3627 114.248 26.672C114.179 26.976 114.144 27.2987 114.144 27.64V32H112.456Z" fill="#F84646"/>
<path d="M130.5 26H141.5" stroke="#F84646" stroke-width="2" stroke-linecap="round" stroke-linejoin="round"/>
<path d="M137 21.5L141.5 26L137 30.5" stroke="#F84646" stroke-width="2" stroke-linecap="round" stroke-linejoin="round"/>
</svg>
